<svg width="21" height="21" viewBox="0 0 21 21" fill="none" xmlns="http://www.w3.org/2000/svg">
<g id="search 1" clip-path="url(#clip0_83_279)">
<path id="Vector" d="M20.7436 19.5064L15.5207 14.2835C16.944 12.5428 17.6438 10.3216 17.4753 8.07936C17.3068 5.83714 16.283 3.74546 14.6156 2.23695C12.9481 0.728439 10.7647 -0.081477 8.51687 -0.0252741C6.26904 0.0309287 4.1288 0.94895 2.53884 2.5389C0.948889 4.12886 0.0308677 6.2691 -0.0253352 8.51693C-0.081538 10.7648 0.728378 12.9482 2.23689 14.6156C3.7454 16.2831 5.83708 17.3069 8.0793 17.4754C10.3215 17.6438 12.5427 16.944 14.2834 15.5207L19.5063 20.7436C19.6713 20.903 19.8924 20.9912 20.1218 20.9892C20.3512 20.9872 20.5707 20.8952 20.7329 20.733C20.8951 20.5707 20.9872 20.3513 20.9891 20.1218C20.9911 19.8924 20.9029 19.6714 20.7436 19.5064ZM8.74993 15.75C7.36546 15.75 6.01208 15.3394 4.86094 14.5703C3.7098 13.8011 2.81259 12.7079 2.28277 11.4288C1.75296 10.1497 1.61434 8.74223 1.88443 7.38436C2.15453 6.02649 2.82122 4.77921 3.80018 3.80024C4.77915 2.82128 6.02643 2.15459 7.3843 1.8845C8.74217 1.6144 10.1496 1.75302 11.4287 2.28284C12.7078 2.81265 13.801 3.70986 14.5702 4.861C15.3394 6.01214 15.7499 7.36552 15.7499 8.74999C15.7478 10.6059 15.0097 12.3851 13.6974 13.6974C12.3851 15.0097 10.6058 15.7479 8.74993 15.75Z" fill="black"/>
</g>
<defs>
<clipPath id="clip0_83_279">
<rect width="21" height="21" fill="white"/>
</clipPath>
</defs>
</svg>
