<svg width="48" height="48" viewBox="0 0 48 48" fill="none" xmlns="http://www.w3.org/2000/svg">
<g id="sack 1" clip-path="url(#clip0_11_208)">
<path id="Vector" d="M27.388 10.472C30.24 8.812 34.05 5.716 34.05 1V0H14.05V1C14.05 5.712 17.814 8.806 20.634 10.466C10.646 12.99 2 26.086 2 36.5C2 42.84 7.158 48 13.5 48H34.5C40.842 48 46 42.84 46 36.5C46 26.094 37.368 13.008 27.388 10.472ZM16.128 2H31.97C31.226 6.644 25.472 9.314 24.002 9.924C22.544 9.31 16.864 6.642 16.128 2ZM34.5 46H13.5C8.262 46 4 41.738 4 36.5C4 25.852 13.754 12.128 24 12C34.248 12.126 44 25.852 44 36.5C44 41.738 39.738 46 34.5 46Z" fill="black"/>
</g>
<defs>
<clipPath id="clip0_11_208">
<rect width="48" height="48" fill="white"/>
</clipPath>
</defs>
</svg>
