<svg width="50" height="50" viewBox="0 0 50 50" fill="none" xmlns="http://www.w3.org/2000/svg">
<g id="shoe-prints 1" clip-path="url(#clip0_16_224)">
<path id="Vector" d="M37.3833 4.16667C32.3187 4.16667 27.0833 9.62083 27.0833 18.75C27.0833 21.8146 28.5562 24.9583 30.1167 28.2917C31.6979 31.6687 33.3333 35.1604 33.3333 38.5417V42.7083C33.3333 46.7292 36.6042 50 40.625 50C44.6458 50 47.9167 46.7292 47.9167 42.7083V38.5417C47.9167 34.9333 48.4896 32.3187 49.0458 29.7896C49.5354 27.5562 50 25.4458 50 22.9167C50 4.69167 38.675 4.16667 37.3833 4.16667ZM45.8333 38.5417V42.7083C45.8333 45.5792 43.4979 47.9167 40.625 47.9167C37.7521 47.9167 35.4167 45.5792 35.4167 42.7083V38.5417C35.4167 38.1937 35.4021 37.8458 35.375 37.5H45.85C45.8396 37.8396 45.8333 38.1854 45.8333 38.5417ZM47.0104 29.3437C46.6208 31.1229 46.1917 33.0708 45.975 35.4167H35.0604C34.4688 32.6771 33.2187 30.0104 32 27.4062C30.5417 24.2917 29.1646 21.35 29.1646 18.75C29.1646 10.925 33.3438 6.25 37.3812 6.25C38.4604 6.25 47.9146 6.71875 47.9146 22.9167C47.9146 25.2208 47.475 27.2229 47.0083 29.3437H47.0104ZM12.6167 0C11.325 0 0 0.525 0 18.75C0 21.2792 0.464583 23.3896 0.954167 25.6229C1.51042 28.15 2.08333 30.7646 2.08333 34.375V38.5417C2.08333 42.5625 5.35417 45.8333 9.375 45.8333C13.3958 45.8333 16.6667 42.5625 16.6667 38.5417V34.375C16.6667 30.9937 18.3021 27.5021 19.8833 24.125C21.4437 20.7937 22.9167 17.6479 22.9167 14.5833C22.9167 5.45417 17.6792 0 12.6167 0ZM14.5833 34.375V38.5417C14.5833 41.4125 12.2479 43.75 9.375 43.75C6.50208 43.75 4.16667 41.4125 4.16667 38.5417V34.375C4.16667 34.0187 4.16042 33.6729 4.15 33.3333H14.625C14.5979 33.6792 14.5833 34.0271 14.5833 34.375ZM17.9979 23.2396C16.7792 25.8437 15.5292 28.5104 14.9375 31.25H4.02292C3.80625 28.9042 3.37917 26.9562 2.9875 25.1771C2.52083 23.0562 2.08125 21.0542 2.08125 18.75C2.08333 2.55208 11.5375 2.08333 12.6167 2.08333C16.6542 2.08333 20.8333 6.75833 20.8333 14.5833C20.8333 17.1833 19.4562 20.125 17.9979 23.2396Z" fill="black"/>
</g>
<defs>
<clipPath id="clip0_16_224">
<rect width="50" height="50" fill="white"/>
</clipPath>
</defs>
</svg>
