<svg width="60" height="60" viewBox="0 0 60 60" fill="none" xmlns="http://www.w3.org/2000/svg">
<g id="coin 1" clip-path="url(#clip0_11_206)">
<path id="Vector" d="M30 5C13.1775 5 0 12.1375 0 21.25V38.75C0 47.8625 13.1775 55 30 55C46.8225 55 60 47.8625 60 38.75V21.25C60 12.1375 46.8225 5 30 5ZM30 7.5C44.905 7.5 57.5 13.7975 57.5 21.25C57.5 28.7025 44.905 35 30 35C15.095 35 2.5 28.7025 2.5 21.25C2.5 13.7975 15.095 7.5 30 7.5ZM17.5 36.0575V50.93C14.69 50.19 12.16 49.2125 10 48.0575V33.435C12.2225 34.5025 14.74 35.3875 17.5 36.0575ZM20 36.59C22.745 37.1 25.68 37.4025 28.75 37.4675V52.4675C25.69 52.395 22.745 52.065 20 51.51V36.59ZM31.25 37.4675C34.32 37.4025 37.255 37.1 40 36.59V51.51C37.255 52.065 34.31 52.395 31.25 52.4675V37.4675ZM42.5 36.06C45.26 35.39 47.7775 34.5025 50 33.4375V48.06C47.84 49.215 45.31 50.1925 42.5 50.9325V36.06ZM2.5 38.75V27.8375C3.7525 29.405 5.45 30.8275 7.5 32.0825V46.53C4.3675 44.3 2.5 41.6125 2.5 38.7525V38.75ZM57.5 38.75C57.5 41.6125 55.6325 44.2975 52.5 46.5275V32.08C54.55 30.8275 56.2475 29.4025 57.5 27.835V38.7475V38.75Z" fill="black"/>
</g>
<defs>
<clipPath id="clip0_11_206">
<rect width="60" height="60" fill="white"/>
</clipPath>
</defs>
</svg>
