<svg width="26" height="26" viewBox="0 0 26 26" fill="none" xmlns="http://www.w3.org/2000/svg">
<g id="circle-user 1" clip-path="url(#clip0_96_392)">
<path id="Vector" d="M13 0C20.1684 0 26 5.83158 26 13C26 20.1684 20.1684 26 13 26C5.83158 26 0 20.1684 0 13C0 5.83158 5.83158 0 13 0ZM18.4167 23.6134V22.75C18.4167 19.7633 15.9867 17.3333 13 17.3333C10.0132 17.3333 7.58333 19.7633 7.58333 22.75V23.6134C9.20942 24.4465 11.0511 24.9167 13 24.9167C14.9489 24.9167 16.7906 24.4465 18.4167 23.6134ZM6.5 22.9829V22.75C6.5 19.1653 9.41525 16.25 13 16.25C16.5847 16.25 19.5 19.1653 19.5 22.75V22.9829C22.7587 20.8542 24.9167 17.1741 24.9167 13C24.9167 6.42958 19.5704 1.08333 13 1.08333C6.42958 1.08333 1.08333 6.42958 1.08333 13C1.08333 17.1741 3.24133 20.8542 6.5 22.9829ZM13 5.41667C15.3898 5.41667 17.3333 7.36017 17.3333 9.75C17.3333 12.1398 15.3898 14.0833 13 14.0833C10.6102 14.0833 8.66667 12.1398 8.66667 9.75C8.66667 7.36017 10.6102 5.41667 13 5.41667ZM13 13C14.7918 13 16.25 11.5418 16.25 9.75C16.25 7.95817 14.7918 6.5 13 6.5C11.2082 6.5 9.75 7.95817 9.75 9.75C9.75 11.5418 11.2082 13 13 13Z" fill="#FFE00C"/>
</g>
<defs>
<clipPath id="clip0_96_392">
<rect width="26" height="26" fill="white" transform="matrix(-1 0 0 1 26 0)"/>
</clipPath>
</defs>
</svg>
