<svg width="47" height="47" viewBox="0 0 47 47" fill="none" xmlns="http://www.w3.org/2000/svg">
<g id="house-chimney-user 1" clip-path="url(#clip0_11_162)">
<path id="Vector" d="M43.0363 11.4465L41.125 10.1559V2.93749C41.125 2.39699 40.6863 1.95833 40.1458 1.95833C39.6053 1.95833 39.1667 2.39699 39.1667 2.93749V8.83403L28.39 1.56274C25.3976 -0.456299 21.528 -0.456299 18.5317 1.56274L3.88337 11.4465C1.45113 13.0875 0 15.8175 0 18.751V38.1875C0 43.0461 3.95387 47 8.8125 47H38.1072C42.9658 47 46.9197 43.0461 46.9197 38.1875V18.751C46.9197 15.8175 45.4686 13.0856 43.0363 11.4465ZM13.6692 45.0417C13.6907 39.6602 18.0735 35.2892 23.4608 35.2892C28.8482 35.2892 33.231 39.6621 33.2525 45.0417H13.6692ZM44.9614 38.1875C44.9614 41.9671 41.8868 45.0417 38.1072 45.0417H35.2089C35.1873 38.5792 29.9253 33.3308 23.4589 33.3308C16.9925 33.3308 11.7304 38.5811 11.7089 45.0417H8.81054C5.03096 45.0417 1.95638 41.9671 1.95638 38.1875V18.751C1.95638 16.4696 3.08633 14.3448 4.97612 13.0699L19.6264 3.1862C20.7916 2.40091 22.1252 2.00728 23.4608 2.00728C24.7964 2.00728 26.13 2.40091 27.2952 3.1862L41.9416 13.0699C43.8334 14.3467 44.9614 16.4696 44.9614 18.751V38.1875ZM23.4589 13.7475C19.1388 13.7475 15.6255 17.2607 15.6255 21.5808C15.6255 25.9009 19.1388 29.4142 23.4589 29.4142C27.779 29.4142 31.2922 25.9009 31.2922 21.5808C31.2922 17.2607 27.779 13.7475 23.4589 13.7475ZM23.4589 27.4558C20.2198 27.4558 17.5839 24.8199 17.5839 21.5808C17.5839 18.3417 20.2198 15.7058 23.4589 15.7058C26.698 15.7058 29.3339 18.3417 29.3339 21.5808C29.3339 24.8199 26.698 27.4558 23.4589 27.4558Z" fill="black"/>
</g>
<defs>
<clipPath id="clip0_11_162">
<rect width="47" height="47" fill="white"/>
</clipPath>
</defs>
</svg>
