<svg width="48" height="48" viewBox="0 0 48 48" fill="none" xmlns="http://www.w3.org/2000/svg">
<g id="circle-user 2" clip-path="url(#clip0_11_150)">
<path id="Vector" d="M24 0C37.234 0 48 10.766 48 24C48 37.234 37.234 48 24 48C10.766 48 0 37.234 0 24C0 10.766 10.766 0 24 0ZM34 43.594V42C34 36.486 29.514 32 24 32C18.486 32 14 36.486 14 42V43.594C17.002 45.132 20.402 46 24 46C27.598 46 30.998 45.132 34 43.594ZM12 42.43V42C12 35.382 17.382 30 24 30C30.618 30 36 35.382 36 42V42.43C42.016 38.5 46 31.706 46 24C46 11.87 36.13 2 24 2C11.87 2 2 11.87 2 24C2 31.706 5.984 38.5 12 42.43ZM24 10C28.412 10 32 13.588 32 18C32 22.412 28.412 26 24 26C19.588 26 16 22.412 16 18C16 13.588 19.588 10 24 10ZM24 24C27.308 24 30 21.308 30 18C30 14.692 27.308 12 24 12C20.692 12 18 14.692 18 18C18 21.308 20.692 24 24 24Z" fill="black"/>
</g>
<defs>
<clipPath id="clip0_11_150">
<rect width="48" height="48" fill="white" transform="matrix(-1 0 0 1 48 0)"/>
</clipPath>
</defs>
</svg>
