<svg width="24" height="24" viewBox="0 0 24 24" fill="none" xmlns="http://www.w3.org/2000/svg">
<g id="circle-user 5" clip-path="url(#clip0_29_649)">
<path id="Vector" d="M12 0C18.617 0 24 5.383 24 12C24 18.617 18.617 24 12 24C5.383 24 0 18.617 0 12C0 5.383 5.383 0 12 0ZM17 21.797V21C17 18.243 14.757 16 12 16C9.243 16 7 18.243 7 21V21.797C8.501 22.566 10.201 23 12 23C13.799 23 15.499 22.566 17 21.797ZM6 21.215V21C6 17.691 8.691 15 12 15C15.309 15 18 17.691 18 21V21.215C21.008 19.25 23 15.853 23 12C23 5.935 18.065 1 12 1C5.935 1 1 5.935 1 12C1 15.853 2.992 19.25 6 21.215ZM12 5C14.206 5 16 6.794 16 9C16 11.206 14.206 13 12 13C9.794 13 8 11.206 8 9C8 6.794 9.794 5 12 5ZM12 12C13.654 12 15 10.654 15 9C15 7.346 13.654 6 12 6C10.346 6 9 7.346 9 9C9 10.654 10.346 12 12 12Z" fill="black"/>
</g>
<defs>
<clipPath id="clip0_29_649">
<rect width="24" height="24" fill="white" transform="matrix(-1 0 0 1 24 0)"/>
</clipPath>
</defs>
</svg>
