<svg width="48" height="48" viewBox="0 0 48 48" fill="none" xmlns="http://www.w3.org/2000/svg">
<g id="bullhorn 1" clip-path="url(#clip0_23_339)">
<path id="Vector" d="M47.898 19.2064C47.898 15.9324 45.262 13.2644 42 13.2084V1.00043C42 0.476429 41.596 0.0424289 41.074 0.00242889C40.558 -0.0335711 40.09 0.334429 40.01 0.852429C39.046 7.30443 30.518 8.00043 26.896 8.00043H10.998C4.934 8.00043 0 12.9344 0 19.0004C0 22.3024 1.476 25.2684 3.808 27.2864L10.302 44.7124C10.76 45.9664 11.678 46.9684 12.888 47.5324C13.56 47.8444 14.276 48.0024 14.996 48.0024C15.574 48.0024 16.154 47.9004 16.712 47.6964C19.302 46.7524 20.64 43.8764 19.698 41.2884L15.606 30.0004H27.002C31.416 30.0004 38.976 30.9304 40.016 37.1644C40.098 37.6504 40.516 38.0004 41.002 38.0004C41.03 38.0004 41.058 38.0004 41.086 37.9984C41.604 37.9564 42.004 37.5224 42.004 37.0004V25.2024C45.266 25.1464 47.902 22.4784 47.902 19.2044L47.898 19.2064ZM2 19.0004C2 14.0384 6.038 10.0004 11 10.0004H16V28.0004H11.102C6.082 28.0004 2 23.9624 2 19.0004ZM17.818 41.9724C18.092 42.7244 18.058 43.5404 17.72 44.2644C17.382 44.9904 16.78 45.5424 16.028 45.8164C14.47 46.3844 12.748 45.5784 12.18 44.0184L6.604 29.0544C7.98 29.6604 9.502 30.0004 11.104 30.0004H13.478L17.818 41.9724ZM40 32.4984C37.542 29.5964 33.044 28.0004 27 28.0004H18V10.0004H26.898C33.012 10.0004 37.54 8.42443 40 5.55443V32.4984ZM42 23.2024V15.2084C44.158 15.2624 45.898 17.0344 45.898 19.2064C45.898 21.3784 44.16 23.1484 42 23.2044V23.2024Z" fill="black"/>
</g>
<defs>
<clipPath id="clip0_23_339">
<rect width="48" height="48" fill="white"/>
</clipPath>
</defs>
</svg>
