<svg width="47" height="47" viewBox="0 0 47 47" fill="none" xmlns="http://www.w3.org/2000/svg">
<g id="boxes 1" clip-path="url(#clip0_15_222)">
<path id="Vector" d="M30.3542 29.375H38.1875V31.3333H30.3542V29.375ZM47 26.4375V47H0V26.4375C0 23.737 2.19529 21.5417 4.89583 21.5417H9.79167V4.89583C9.79167 2.19529 11.987 0 14.6875 0H32.3125C35.013 0 37.2083 2.19529 37.2083 4.89583V21.5417H42.1042C44.8047 21.5417 47 23.737 47 26.4375ZM11.75 21.5417H35.25V4.89583C35.25 3.27629 33.932 1.95833 32.3125 1.95833H14.6875C13.068 1.95833 11.75 3.27629 11.75 4.89583V21.5417ZM1.95833 45.0417H22.5208V23.5H4.89583C3.27629 23.5 1.95833 24.818 1.95833 26.4375V45.0417ZM45.0417 26.4375C45.0417 24.818 43.7237 23.5 42.1042 23.5H24.4792V45.0417H45.0417V26.4375ZM8.8125 29.375V31.3333H16.6458V29.375H8.8125ZM19.5833 9.79167H27.4167V7.83333H19.5833V9.79167Z" fill="black"/>
</g>
<defs>
<clipPath id="clip0_15_222">
<rect width="47" height="47" fill="white"/>
</clipPath>
</defs>
</svg>
