<svg width="47" height="47" viewBox="0 0 47 47" fill="none" xmlns="http://www.w3.org/2000/svg">
<g id="box-open-full 1" clip-path="url(#clip0_11_210)">
<path id="Vector" d="M46.2869 20.134L43.9428 15.7551C43.0831 14.1473 41.2011 13.3875 39.4563 13.9535L23.5017 19.1568L7.54521 13.9535C5.79642 13.3856 3.91838 14.1473 3.05867 15.7551L0.736087 20.0928C-0.0707468 21.4343 -0.223497 23.046 0.318962 24.5148C0.859462 25.9835 2.02467 27.1096 3.50909 27.605L3.92034 27.7421L3.90859 34.8332C3.90859 38.6343 6.32713 41.9968 9.93438 43.1992L19.4558 46.3737C20.7542 46.8065 22.1172 47.0219 23.4821 47.0219C24.8471 47.0219 26.2101 46.8065 27.5085 46.3737L37.0377 43.1973C40.6469 41.9948 43.0733 38.6363 43.0753 34.8411V27.7421L43.4904 27.6031C44.9748 27.1076 46.14 25.9816 46.6805 24.5128C47.223 23.0441 47.0703 21.4323 46.2869 20.134ZM2.15588 23.8372C1.821 22.9285 1.915 21.9317 2.43984 21.0603L4.78396 16.6814C5.10513 16.0802 5.72396 15.7277 6.37609 15.7277C6.56213 15.7277 6.75013 15.7571 6.93617 15.8178L22.0525 20.7469L18.1907 27.8655C17.4328 29.1286 15.9269 29.6887 14.5345 29.2167L4.12988 25.7485C3.21142 25.443 2.49271 24.7458 2.15588 23.8391V23.8372ZM22.4912 45.0185C21.6707 44.9441 20.8599 44.7757 20.0766 44.5133L10.5552 41.3388C7.74888 40.4027 5.86496 37.7903 5.86692 34.8332L5.87671 28.3942L13.9137 31.0732C14.4503 31.2514 14.9967 31.3376 15.5333 31.3376C17.2762 31.3376 18.931 30.4309 19.8905 28.8329L22.503 24.0213L22.4912 45.0185ZM41.1169 34.8411C41.1169 37.7923 39.2271 40.4027 36.4189 41.3368L26.8896 44.5133C26.0985 44.7776 25.2779 44.9461 24.4495 45.0205L24.4613 23.9527L27.1285 28.8681C28.0685 30.4387 29.7194 31.3376 31.4604 31.3376C31.9989 31.3376 32.5472 31.2514 33.0838 31.0732L41.1169 28.3962V34.8411ZM44.8436 23.8372C44.5068 24.7439 43.7881 25.4391 42.8696 25.7466L32.465 29.2148C31.0648 29.6828 29.5647 29.1227 28.8303 27.8988L24.9489 20.745L40.0653 15.8158C40.9035 15.5397 41.8063 15.9098 42.2195 16.6795L44.5871 21.1014C45.0884 21.9317 45.1824 22.9285 44.8475 23.8352L44.8436 23.8372ZM9.31946 11.4586C8.9415 11.0747 8.94542 10.452 9.33121 10.074L18.696 0.856137C19.8318 -0.283613 21.6961 -0.285572 22.8437 0.862012L26.5352 4.55347C27.6475 3.55864 29.502 3.58801 30.5752 4.66118L35.9685 10.0525C36.3503 10.4343 36.3503 11.0551 35.9685 11.437C35.5866 11.8189 34.9658 11.8189 34.5839 11.437L29.1907 6.04572C28.8088 5.66384 28.188 5.66384 27.8061 6.04572L19.2893 14.4078C19.0974 14.5958 18.8487 14.6898 18.602 14.6898C18.3474 14.6898 18.0948 14.5919 17.9048 14.398C17.5268 14.0122 17.5327 13.3914 17.9165 13.0135L25.135 5.92626L21.4572 2.24851C21.0753 1.86664 20.4545 1.86664 20.0727 2.24851L10.704 11.4683C10.5121 11.6563 10.2653 11.7503 10.0166 11.7503C9.764 11.7503 9.50942 11.6524 9.31946 11.4586Z" fill="black"/>
</g>
<defs>
<clipPath id="clip0_11_210">
<rect width="47" height="47" fill="white"/>
</clipPath>
</defs>
</svg>
