<svg width="48" height="48" viewBox="0 0 48 48" fill="none" xmlns="http://www.w3.org/2000/svg">
<g id="messages 1" clip-path="url(#clip0_11_216)">
<path id="Vector" d="M43 8H36V5C36 2.242 33.756 0 31 0H5C2.244 0 0 2.242 0 5V36.708C0 37.924 0.666 39.04 1.74 39.614C2.23 39.876 2.764 40.004 3.298 40.004C3.936 40.004 4.572 39.818 5.124 39.452L12 34.868V42H34.698L42.876 47.454C43.428 47.822 44.064 48.006 44.702 48.006C45.236 48.006 45.77 47.878 46.26 47.616C47.334 47.042 48 45.926 48 44.71V13C48 10.242 45.756 8 43 8ZM4.014 37.79C3.612 38.062 3.114 38.084 2.684 37.852C2.256 37.624 2 37.196 2 36.71V5C2 3.346 3.346 2 5 2H31C32.654 2 34 3.346 34 5V32H12.698L4.014 37.79ZM46 44.71C46 45.196 45.744 45.624 45.316 45.852C44.886 46.082 44.392 46.06 43.986 45.79L35.304 40H14V34H36V10H43C44.654 10 46 11.346 46 13V44.71Z" fill="black"/>
</g>
<defs>
<clipPath id="clip0_11_216">
<rect width="48" height="48" fill="white"/>
</clipPath>
</defs>
</svg>
